<?xml version="1.0" standalone="no"?>
<!DOCTYPE svg PUBLIC "-//W3C//DTD SVG 20010904//EN"
 "http://www.w3.org/TR/2001/REC-SVG-20010904/DTD/svg10.dtd">
<svg version="1.0" xmlns="http://www.w3.org/2000/svg"
 width="600.000000pt" height="600.000000pt" viewBox="0 0 600.000000 600.000000"
 preserveAspectRatio="xMidYMid meet">
<metadata>
Created by potrace 1.15, written by Peter Selinger 2001-2017
</metadata>
<g transform="translate(0.000000,600.000000) scale(0.100000,-0.100000)"
fill="#000000" stroke="none">
<path d="M2557 5129 c-318 -46 -603 -221 -789 -484 -88 -124 -136 -261 -145
-410 -11 -208 58 -354 218 -460 137 -91 248 -120 408 -104 220 23 412 127 508
277 39 61 83 171 83 208 0 61 -75 22 -86 -45 -10 -66 -26 -91 -95 -155 -160
-148 -393 -218 -572 -171 -66 17 -172 68 -205 99 -91 82 -96 274 -11 455 98
211 338 416 598 511 151 55 266 73 466 74 157 0 196 -4 310 -28 180 -37 342
-87 533 -162 131 -52 438 -187 449 -197 1 -2 -15 -28 -36 -57 -142 -200 -413
-696 -514 -942 -18 -44 -7 -43 -192 -23 -250 26 -369 17 -506 -40 -92 -39
-180 -105 -234 -177 -79 -105 -102 -167 -73 -196 19 -19 25 -16 92 52 107 109
233 157 461 177 127 12 365 5 365 -10 0 -15 -154 -319 -207 -410 -82 -139
-180 -283 -274 -402 -113 -143 -344 -370 -459 -451 -172 -122 -384 -215 -593
-260 -148 -32 -427 -31 -577 1 -595 128 -982 546 -957 1036 15 295 111 469
361 651 107 77 120 94 76 94 -76 0 -182 -62 -298 -174 -116 -111 -158 -195
-204 -404 -32 -141 -32 -439 -1 -562 49 -192 135 -345 272 -480 261 -259 613
-390 1049 -390 418 0 815 128 1104 358 93 74 271 254 351 355 155 195 345 563
483 935 l38 104 44 -7 c70 -10 547 -7 650 5 155 17 235 55 203 94 -12 14 -51
16 -298 16 -271 0 -519 13 -536 29 -19 18 248 615 352 786 78 127 154 227 171
222 8 -3 96 -43 195 -90 371 -175 729 -270 924 -246 129 16 245 86 293 178 24
46 28 65 26 115 -4 71 -21 80 -53 28 -79 -130 -124 -159 -271 -173 -173 -16
-357 17 -666 121 -135 46 -332 126 -368 150 -38 26 116 99 177 84 15 -4 40
-16 56 -28 25 -18 29 -19 43 -4 22 21 12 77 -19 106 -28 27 -105 44 -160 36
-59 -9 -135 -48 -182 -94 l-40 -39 -85 51 c-121 73 -305 166 -450 227 -263
111 -621 218 -805 240 -103 13 -313 13 -398 0z"/>
</g>
</svg>
