<?xml version="1.0" standalone="no"?>
<!DOCTYPE svg PUBLIC "-//W3C//DTD SVG 20010904//EN"
 "http://www.w3.org/TR/2001/REC-SVG-20010904/DTD/svg10.dtd">
<svg version="1.0" xmlns="http://www.w3.org/2000/svg"
 width="965.000000pt" height="722.000000pt" viewBox="0 0 965.000000 722.000000"
 preserveAspectRatio="xMidYMid meet">
<metadata>
Created by potrace 1.15, written by Peter Selinger 2001-2017
</metadata>
<g transform="translate(0.000000,722.000000) scale(0.100000,-0.100000)"
fill="#000000" stroke="none">
<path d="M4215 5609 c-184 -65 -287 -239 -240 -407 37 -133 164 -215 282 -183
80 22 132 92 133 179 0 49 -29 86 -75 98 -58 14 -108 -64 -69 -107 22 -24 69
-25 84 -1 9 14 10 10 6 -18 -4 -23 -19 -47 -42 -69 -34 -31 -40 -33 -94 -29
-84 6 -134 43 -150 110 -19 77 -9 147 29 207 68 105 171 156 303 149 266 -15
417 -282 338 -594 -25 -99 -103 -257 -172 -349 -109 -145 -316 -338 -465 -433
l-52 -33 -42 22 c-299 152 -655 245 -1017 264 l-132 8 -6 26 c-20 97 -92 183
-190 228 -75 34 -191 31 -274 -8 -116 -54 -217 -185 -238 -308 -7 -43 -7 -44
-79 -70 -39 -14 -74 -29 -78 -33 -4 -3 -42 23 -86 58 -140 113 -271 164 -418
164 -271 0 -487 -188 -517 -449 -8 -70 7 -147 43 -220 29 -61 30 -59 -54 -90
-91 -35 -210 -54 -294 -48 -181 14 -303 105 -350 260 -60 194 30 403 201 468
59 22 156 25 203 5 44 -18 95 -78 103 -122 9 -47 -9 -104 -42 -138 -33 -32
-65 -35 -57 -6 7 26 -23 60 -53 60 -27 0 -64 -43 -64 -75 0 -47 53 -70 127
-55 93 20 153 90 153 180 0 57 -21 101 -75 159 -64 68 -132 94 -235 89 -289
-13 -466 -355 -329 -636 62 -126 210 -233 365 -262 l69 -13 -82 -18 c-237 -51
-411 -226 -444 -447 -38 -257 140 -481 383 -482 132 0 265 97 297 217 34 125
-91 259 -208 225 -27 -9 -43 -21 -54 -43 -18 -38 -12 -63 21 -89 22 -18 28
-19 46 -7 37 25 44 47 18 64 -47 32 -10 45 53 19 86 -36 86 -166 -1 -246 -76
-70 -198 -89 -289 -46 -104 49 -166 154 -173 293 -8 156 56 286 187 380 96 69
172 93 300 93 76 0 114 -5 184 -26 48 -15 87 -31 87 -36 0 -5 -7 -23 -17 -41
-82 -160 -46 -371 87 -508 120 -123 310 -170 499 -123 79 20 222 91 279 139
l41 35 97 -38 97 -39 20 -54 c25 -67 63 -124 116 -172 165 -149 439 -117 531
63 l19 37 148 6 c450 20 727 86 1109 267 l102 48 89 -78 c193 -168 362 -409
421 -602 60 -194 57 -400 -9 -531 -83 -163 -217 -257 -370 -259 -130 -1 -229
57 -287 167 -23 43 -27 63 -27 135 0 72 4 92 25 130 46 81 148 113 230 72 31
-15 37 -25 52 -81 17 -64 16 -92 -3 -59 -18 32 -48 42 -70 22 -30 -27 -25 -71
13 -94 36 -22 58 -15 95 29 51 60 13 178 -69 219 -104 52 -192 38 -274 -42
-42 -41 -56 -63 -69 -110 -33 -115 0 -239 90 -335 49 -52 141 -106 201 -117
19 -3 31 -10 28 -15 -3 -5 27 -9 65 -9 39 0 71 4 71 8 0 4 30 18 68 30 169 55
310 226 356 435 4 15 10 27 14 27 4 0 17 -37 30 -82 12 -45 37 -107 54 -137
63 -111 177 -208 283 -241 22 -7 44 -16 49 -21 13 -11 176 -12 176 -1 0 5 19
14 42 21 90 28 180 109 229 208 59 119 37 267 -52 348 -22 20 -50 35 -63 35
-13 0 -26 5 -28 11 -6 17 -107 30 -148 19 -92 -25 -152 -166 -99 -234 25 -31
68 -35 93 -7 28 31 17 64 -25 76 -31 9 -36 14 -32 35 5 35 53 80 95 89 72 17
162 -38 204 -125 29 -60 29 -103 -2 -196 -46 -141 -234 -240 -387 -204 -99 23
-222 131 -277 243 -172 349 43 850 517 1200 40 29 77 53 83 53 6 0 56 -23 111
-51 315 -158 611 -241 976 -276 l182 -17 19 -46 c56 -134 214 -212 366 -180
131 27 223 96 281 212 19 39 35 76 35 83 0 6 55 30 122 52 l122 41 41 -33 c82
-67 226 -133 338 -154 40 -7 47 -6 47 8 0 29 -16 41 -76 57 -32 8 -83 26 -111
39 -61 28 -163 93 -163 105 0 4 39 26 87 49 48 23 142 74 208 114 66 39 132
78 146 87 15 8 85 54 156 103 72 48 135 87 141 87 19 0 50 -72 63 -144 42
-225 -127 -444 -351 -454 -41 -2 -78 -7 -81 -10 -4 -4 -3 -17 2 -30 8 -22 13
-23 66 -17 85 10 180 42 240 82 182 121 250 363 156 560 -29 64 -33 58 72 102
247 103 498 71 644 -84 152 -161 161 -397 20 -550 -52 -56 -78 -71 -144 -79
-154 -21 -285 74 -285 205 0 53 21 86 66 105 48 20 55 18 43 -10 -23 -49 30
-92 76 -62 32 21 40 52 21 81 -24 36 -44 42 -118 36 -51 -5 -73 -12 -92 -30
-38 -35 -60 -102 -53 -156 13 -92 66 -161 157 -204 46 -21 69 -26 145 -26 111
0 175 26 252 103 172 172 161 456 -26 643 -78 78 -184 134 -284 152 -37 6 -67
14 -67 17 0 4 24 12 53 19 163 37 307 160 356 304 75 219 -22 464 -221 557
-92 43 -160 48 -250 19 -139 -44 -219 -162 -189 -276 31 -114 180 -185 246
-118 28 27 30 42 14 79 -14 30 -37 40 -54 26 -7 -6 -19 -9 -26 -8 -21 5 -23
-41 -3 -63 23 -26 2 -25 -46 2 -49 28 -70 66 -70 126 0 66 33 120 90 151 38
20 55 23 110 19 130 -8 228 -74 287 -194 36 -74 38 -81 38 -178 0 -92 -3 -106
-32 -167 -91 -192 -291 -262 -554 -194 -96 25 -189 61 -189 74 0 4 7 29 15 56
37 120 9 274 -69 386 -173 249 -512 288 -808 94 -45 -30 -86 -54 -92 -54 -6
-1 -52 12 -103 27 l-92 28 -11 49 c-14 67 -65 159 -117 211 -64 66 -176 116
-256 117 -72 0 -177 -19 -177 -33 0 -5 -7 -9 -15 -9 -46 0 -134 -128 -135
-195 0 -52 -9 -56 -136 -65 -363 -27 -631 -96 -939 -240 l-107 -50 -76 55
c-297 214 -495 480 -567 765 -26 100 -17 274 18 359 33 79 82 143 147 192 173
130 426 84 514 -93 37 -73 37 -168 1 -221 -66 -96 -189 -122 -254 -53 -24 26
-44 111 -20 89 32 -30 89 -1 89 45 0 33 -53 63 -93 51 -49 -14 -62 -33 -61
-92 1 -74 32 -129 86 -155 66 -32 109 -36 173 -18 180 53 241 278 118 443 -83
113 -208 169 -363 161 -119 -6 -211 -50 -295 -140 -64 -69 -130 -193 -141
-264 -3 -24 -10 -44 -14 -44 -9 0 -12 9 -30 87 -17 75 -90 193 -153 247 -30
25 -85 60 -123 78 -93 42 -218 50 -309 17z m660 -805 c77 -233 286 -504 523
-679 45 -33 81 -62 81 -65 1 -3 -18 -16 -42 -29 -23 -13 -109 -68 -192 -121
-149 -97 -150 -97 -199 -91 -44 5 -51 9 -57 34 -12 45 -28 57 -74 57 -38 0
-44 3 -55 29 -13 32 -45 64 -72 74 -13 4 -26 -4 -45 -30 -45 -59 -72 -85 -83
-78 -20 13 -51 -7 -70 -46 -14 -26 -27 -39 -41 -39 -19 0 -407 248 -408 262
-1 3 46 43 104 88 288 222 495 502 558 755 l22 91 11 -66 c7 -36 24 -101 39
-146z m-2254 -194 c79 -22 148 -98 149 -162 0 -27 -1 -28 -58 -28 -82 0 -207
-16 -355 -46 -70 -15 -130 -24 -133 -21 -3 3 8 35 25 70 70 147 229 227 372
187z m4557 -19 c67 -34 123 -91 154 -156 29 -63 34 -85 19 -85 -5 0 -43 7 -83
16 -40 9 -113 17 -163 17 -49 1 -92 5 -95 9 -3 4 -49 8 -103 10 l-97 3 0 33
c0 70 55 138 139 169 54 20 176 12 229 -16z m-5531 -206 c75 -26 192 -94 226
-132 18 -20 17 -21 -95 -75 -62 -30 -157 -80 -210 -111 -92 -52 -101 -56 -146
-50 -45 5 -51 3 -71 -22 -12 -16 -19 -35 -16 -44 4 -13 -25 -35 -121 -90 -142
-83 -139 -84 -169 13 -29 96 -13 232 38 316 30 49 103 126 144 151 117 73 283
90 420 44z m6592 -20 c29 -7 77 -25 106 -39 59 -30 152 -122 184 -184 25 -50
51 -144 51 -189 0 -51 -20 -131 -34 -136 -7 -3 -53 17 -102 45 -214 121 -410
226 -551 295 -84 41 -153 78 -153 82 0 10 95 69 147 92 112 48 250 61 352 34z
m-5009 -60 c124 -17 302 -59 416 -99 127 -43 295 -118 291 -129 -6 -18 -230
-131 -369 -187 -226 -90 -423 -130 -649 -130 -217 0 -377 40 -506 128 -75 51
-118 100 -154 176 -32 67 -55 164 -42 176 10 10 174 50 233 57 43 5 46 4 56
-25 22 -57 95 -83 172 -62 47 12 117 69 128 102 6 20 11 21 158 15 83 -3 203
-13 266 -22z m3652 -80 c21 -8 48 -15 60 -15 34 0 125 45 140 69 7 12 22 21
33 21 29 0 244 -46 252 -54 11 -11 -15 -127 -42 -182 -70 -143 -215 -242 -433
-296 -177 -44 -475 -25 -707 46 -192 58 -515 206 -515 236 0 8 175 84 295 128
204 74 485 125 740 135 57 2 62 0 100 -35 22 -20 57 -44 77 -53z m649 -16 c19
-7 38 -16 43 -20 6 -5 -36 -56 -105 -126 -62 -65 -117 -119 -121 -121 -5 -2 8
20 27 49 31 48 63 129 79 202 7 30 23 34 77 16z m-5519 -97 c169 -212 220
-265 388 -404 l45 -37 -90 -1 c-50 0 -95 -4 -101 -10 -12 -12 -66 2 -72 19 -3
9 2 11 17 6 24 -7 29 10 5 19 -8 3 -40 3 -69 0 -39 -5 -62 -2 -85 10 -18 8
-36 14 -40 11 -15 -9 -10 98 6 123 13 20 14 26 3 33 -36 22 -117 -3 -145 -45
-16 -26 -16 -87 0 -127 6 -13 2 -15 -20 -11 -15 3 -46 15 -68 28 -23 13 -47
24 -54 24 -7 0 -55 -25 -107 -55 -51 -30 -98 -55 -104 -55 -6 0 -15 -9 -21
-19 -9 -17 2 -26 105 -80 l115 -60 64 34 c58 32 103 45 94 28 -43 -84 -44
-119 -6 -160 17 -19 32 -23 76 -23 54 0 54 0 48 28 -16 64 -17 81 -7 101 22
41 57 54 144 55 68 1 87 5 114 24 22 16 44 22 80 21 95 -1 95 -8 -3 -86 -108
-87 -195 -176 -301 -308 -45 -55 -97 -115 -116 -134 l-36 -34 -98 53 c-119 64
-270 157 -279 171 -3 6 3 20 14 32 26 27 52 88 52 119 -1 33 -33 99 -65 130
-15 15 -53 41 -85 57 l-58 28 41 13 c61 18 114 55 144 102 23 34 28 52 27 102
0 34 -4 73 -8 87 -7 25 -3 29 76 74 90 53 317 164 333 164 6 0 27 -21 47 -47z
m5767 2 c85 -37 304 -146 320 -160 1 -1 -11 -20 -27 -41 -67 -85 -61 -175 18
-254 53 -53 116 -78 199 -80 l56 -2 -55 -7 c-127 -17 -196 -57 -231 -134 -31
-69 -18 -149 33 -203 11 -12 17 -26 14 -32 -8 -12 -154 -101 -218 -132 -27
-13 -48 -27 -48 -31 0 -4 -6 -8 -13 -8 -7 0 -29 -9 -50 -20 -20 -11 -43 -20
-50 -20 -15 0 -101 88 -229 235 -113 129 -154 169 -268 260 -47 37 -86 71 -88
76 -2 5 43 9 100 9 90 0 106 -3 120 -19 13 -16 29 -19 81 -19 114 2 168 -52
131 -133 -23 -52 -11 -64 52 -54 81 12 122 75 91 141 -24 49 -6 52 73 14 l68
-33 121 59 c66 32 121 64 121 69 0 12 -90 51 -109 47 -8 -2 -10 1 -5 9 5 9 1
11 -14 7 -14 -4 -22 -2 -22 7 0 7 -14 22 -32 33 -26 17 -34 18 -42 7 -13 -15
-127 -71 -140 -67 -4 2 -14 -2 -22 -9 -27 -22 -224 13 -224 41 0 4 16 11 36
14 19 4 43 10 52 14 16 5 16 5 0 -11 -9 -9 -25 -17 -34 -17 -13 0 -15 -3 -7
-11 6 -6 42 -14 80 -16 56 -4 79 -1 123 17 30 13 64 32 75 43 19 18 17 18 -25
-2 -25 -12 -53 -26 -63 -32 -27 -15 -29 -8 -12 49 9 28 13 63 9 77 -7 29 -45
60 -54 45 -7 -12 -71 7 -82 24 -14 21 -21 -6 -10 -37 17 -48 15 -84 -7 -106
-22 -22 -95 -45 -117 -37 -8 3 -11 0 -8 -8 3 -8 -4 -16 -17 -19 -30 -8 -41 0
-34 24 8 24 -9 25 -27 2 -26 -35 -51 -40 -155 -35 l-101 5 21 22 c12 12 56 48
97 78 99 74 123 97 280 265 73 78 140 142 148 142 8 0 62 -21 121 -46z m-3640
-135 c47 -29 141 -88 209 -132 98 -64 122 -85 122 -104 0 -17 -7 -24 -27 -28
-16 -3 -41 -10 -58 -16 -16 -6 -46 -16 -65 -23 -25 -8 -197 -10 -625 -6 -347
3 -571 8 -545 13 227 41 346 77 550 168 74 33 180 86 235 118 55 32 104 59
109 60 5 1 48 -22 95 -50z m1489 -9 c100 -61 344 -172 475 -215 104 -34 332
-85 381 -85 3 0 6 -4 6 -9 0 -6 -65 -8 -157 -6 -87 2 -358 7 -601 11 -370 6
-445 5 -452 -6 -7 -11 -14 -8 -36 13 -15 15 -44 32 -65 37 -22 6 -39 14 -39
19 0 16 399 269 427 270 7 1 35 -12 61 -29z m2540 -75 c12 -25 15 -27 67 -29
41 -1 257 -126 253 -145 -2 -9 -25 -29 -52 -46 -42 -25 -62 -31 -125 -33 -65
-3 -83 0 -121 21 -65 34 -105 95 -105 159 0 42 4 53 28 74 35 30 41 30 55 -1z
m-6666 -7 c5 -76 -30 -142 -94 -178 -33 -19 -58 -25 -108 -25 -65 0 -133 20
-128 37 4 11 298 185 316 187 6 1 13 -9 14 -21z m7079 -198 c20 -11 26 -54 9
-65 -17 -10 -11 -54 10 -75 27 -27 25 -44 -5 -58 -38 -18 -50 -15 -98 19 -25
17 -69 39 -98 49 -43 14 -50 19 -34 25 61 21 103 43 144 77 53 43 47 41 72 28z
m-7359 -60 c31 0 28 -18 -4 -25 -43 -10 -98 -38 -137 -71 l-32 -26 -77 25
c-42 14 -94 29 -115 32 -21 4 -36 12 -35 17 2 6 40 21 84 34 44 12 105 33 135
47 l54 23 55 -28 c30 -15 63 -28 72 -28z m3162 -73 c27 -15 58 -27 68 -27 11
0 20 -10 24 -27 10 -50 13 -53 44 -59 16 -4 30 -9 30 -13 0 -7 -196 -136 -338
-223 l-95 -57 -58 40 c-32 21 -62 39 -68 39 -5 0 -11 4 -13 8 -9 25 -301 171
-463 231 -127 47 -282 88 -372 97 -35 4 -63 11 -63 16 0 5 251 8 628 6 l627
-4 49 -27z m1911 23 c139 0 205 -4 195 -10 -8 -5 -28 -10 -44 -10 -47 0 -253
-49 -370 -87 -114 -38 -366 -157 -501 -238 l-80 -47 -40 22 c-22 13 -109 68
-193 123 -151 99 -153 100 -147 131 14 67 6 60 130 107 47 18 74 19 445 14
217 -3 490 -5 605 -5z m-4878 -56 c62 -47 88 -123 63 -184 -20 -48 -47 -57
-79 -26 -15 14 -33 26 -40 26 -8 0 -41 17 -75 39 -34 21 -80 48 -103 60 -51
26 -55 50 -12 75 49 29 79 35 151 33 49 -2 75 -8 95 -23z m6995 -41 c27 -15
48 -33 48 -42 0 -22 -199 -151 -233 -151 -25 0 -57 -23 -57 -41 0 -16 -37 13
-54 42 -20 33 -21 91 -2 127 51 99 183 128 298 65z m-5231 -4 c163 -27 357
-92 535 -178 143 -69 314 -172 314 -189 0 -14 -262 -126 -398 -171 -226 -76
-507 -121 -746 -121 -108 0 -116 3 -116 48 0 61 -98 164 -169 178 -41 8 -114
-20 -141 -53 -57 -72 26 -186 92 -126 27 24 21 83 -7 83 -29 0 -24 21 8 36 33
16 37 16 73 -2 50 -24 84 -76 84 -125 0 -25 -5 -39 -12 -39 -55 0 -302 35
-383 55 -151 36 -155 38 -155 83 0 203 184 418 426 496 156 51 387 60 595 25z
m3734 -19 c263 -70 434 -234 479 -457 20 -103 17 -109 -63 -127 -101 -22 -182
-36 -214 -36 -29 0 -29 1 -14 18 26 29 22 86 -8 117 -43 42 -75 54 -124 45
-23 -4 -50 -6 -59 -4 -43 11 -122 -70 -142 -145 l-12 -44 -106 6 c-332 19
-615 93 -932 244 l-135 64 25 19 c39 30 285 154 390 198 119 49 207 75 335
101 149 30 147 29 330 26 135 -3 187 -8 250 -25z m-5735 -112 c63 -38 110 -73
117 -88 12 -25 53 -49 86 -50 10 0 84 -40 165 -89 81 -49 173 -102 205 -117
31 -16 57 -31 57 -34 0 -12 -129 -92 -186 -115 -134 -55 -291 -60 -396 -12
-155 70 -250 254 -219 423 12 65 44 144 59 144 4 0 54 -28 112 -62z m4032 -79
c106 -67 195 -124 198 -126 3 -3 -11 -17 -30 -32 -287 -220 -487 -475 -573
-734 -15 -42 -29 -100 -33 -127 -4 -28 -10 -50 -14 -50 -4 0 -10 23 -14 50 -8
62 -67 233 -108 314 -69 136 -181 282 -332 428 -60 59 -108 109 -105 112 2 2
53 34 113 71 60 37 148 92 195 124 82 54 89 57 138 53 47 -4 52 -6 58 -32 3
-15 21 -45 39 -66 44 -50 70 -43 114 31 31 52 35 55 72 55 30 0 43 6 57 25 10
13 21 25 25 25 3 0 93 -55 200 -121z m2317 -178 c56 -63 101 -117 101 -121 0
-8 -67 -35 -111 -45 -26 -6 -27 -5 -34 47 -7 59 -39 167 -62 211 -25 49 0 27
106 -92z m-511 -127 c12 -8 19 -20 16 -26 -4 -6 -10 -5 -15 3 -8 11 -12 10
-24 -5 -19 -25 -19 -60 0 -76 29 -24 14 -30 -76 -30 -89 0 -90 0 -83 23 31
102 118 156 182 111z m-4655 -178 c69 -14 163 -28 209 -32 114 -9 118 -13 73
-59 -134 -133 -345 -98 -438 72 -29 54 -27 66 8 53 12 -5 79 -20 148 -34z
m5007 6 c0 -4 -13 -28 -28 -53 -41 -63 -115 -125 -181 -149 -54 -21 -58 -21
-121 -6 -36 9 -83 29 -105 45 -41 29 -85 84 -85 106 0 9 42 14 143 19 78 4
187 15 242 25 121 22 135 23 135 13z"/>
</g>
</svg>
