<?xml version="1.0" standalone="no"?>
<!DOCTYPE svg PUBLIC "-//W3C//DTD SVG 20010904//EN"
 "http://www.w3.org/TR/2001/REC-SVG-20010904/DTD/svg10.dtd">
<svg version="1.0" xmlns="http://www.w3.org/2000/svg"
 width="500.000000pt" height="500.000000pt" viewBox="0 0 500.000000 500.000000"
 preserveAspectRatio="xMidYMid meet">
<metadata>
Created by potrace 1.15, written by Peter Selinger 2001-2017
</metadata>
<g transform="translate(0.000000,500.000000) scale(0.100000,-0.100000)"
fill="#000000" stroke="none">
<path d="M2359 4748 c-1 -7 -3 -26 -4 -43 -2 -16 -4 -156 -4 -310 -1 -154 -5
-285 -9 -291 -4 -5 -27 -18 -53 -27 -94 -36 -167 -153 -154 -249 16 -116 126
-189 214 -144 15 8 42 31 60 51 44 50 44 105 0 146 -33 30 -76 38 -97 17 -15
-15 -16 -53 -1 -79 12 -23 29 -16 29 11 0 21 28 53 40 45 17 -11 20 -57 5 -88
-33 -70 -114 -88 -163 -36 -90 97 -8 275 132 287 65 5 115 -15 148 -59 77
-104 62 -203 -56 -373 -63 -91 -70 -97 -82 -80 -45 65 -100 87 -153 60 -37
-20 -65 -69 -57 -102 8 -30 77 -54 101 -34 26 21 17 33 -20 26 -33 -6 -35 -5
-35 19 0 66 82 86 111 27 22 -43 12 -86 -37 -158 -83 -121 -115 -178 -129
-234 -35 -133 26 -268 144 -317 l44 -19 -44 -14 c-64 -21 -124 -86 -144 -154
-24 -83 -8 -149 48 -204 70 -68 155 -67 216 3 67 76 41 174 -46 175 -44 0 -69
-36 -52 -74 9 -20 15 -23 26 -15 7 6 13 20 13 30 0 24 18 33 35 19 18 -15 19
-53 4 -83 -19 -36 -52 -57 -92 -57 -47 0 -91 41 -107 101 -13 46 -6 79 27 136
30 54 72 76 150 78 58 3 65 0 103 -32 57 -49 81 -102 82 -177 0 -79 -16 -113
-103 -230 l-72 -96 -17 27 c-38 62 -98 84 -155 57 -48 -22 -73 -92 -43 -122
21 -21 108 -13 108 10 0 6 -14 8 -35 5 -33 -5 -35 -4 -35 22 0 32 27 61 58 61
29 0 62 -46 62 -87 0 -41 -6 -53 -82 -160 -87 -122 -112 -182 -112 -268 0
-120 71 -233 168 -265 l37 -12 -7 -602 -7 -603 24 -6 c13 -3 25 -4 28 -1 3 3
7 271 9 597 1 326 5 597 7 604 2 7 23 17 47 23 63 17 131 91 148 159 30 126
-33 244 -137 258 -85 11 -169 -61 -167 -144 1 -61 25 -85 82 -81 51 3 68 22
58 62 -10 39 -40 31 -44 -12 -4 -37 -12 -40 -35 -14 -21 23 -22 54 -2 92 42
81 152 62 190 -32 46 -116 -35 -245 -157 -249 -107 -4 -188 93 -189 225 -1 79
14 114 98 232 l66 94 15 -29 c22 -46 48 -64 102 -69 46 -4 52 -2 80 28 41 43
38 86 -5 112 -25 14 -35 15 -54 5 -34 -17 -41 -42 -10 -33 42 13 53 11 57 -7
5 -27 -23 -64 -55 -72 -23 -5 -32 -1 -55 24 -52 58 -41 92 78 247 86 113 104
156 104 247 0 54 -6 84 -24 122 -27 59 -91 120 -135 130 -33 7 -52 25 -26 25
25 0 95 39 123 68 57 62 81 186 48 250 -16 31 -61 74 -93 91 -82 42 -203 -35
-203 -131 0 -54 14 -75 59 -89 66 -20 103 22 70 82 -13 24 -29 16 -29 -15 0
-13 -7 -30 -16 -37 -14 -11 -18 -10 -31 6 -38 51 22 145 93 145 47 0 68 -12
94 -55 32 -51 25 -138 -14 -190 -44 -58 -77 -73 -151 -70 -74 2 -103 18 -141
75 -52 79 -50 179 7 277 34 58 98 151 108 158 5 3 19 -8 30 -24 59 -83 178
-67 197 26 5 26 1 34 -28 57 -41 31 -50 32 -71 8 -25 -28 -21 -35 18 -28 31 6
35 4 35 -14 0 -24 -42 -70 -64 -70 -8 0 -24 10 -36 22 -30 32 -27 95 7 144
132 192 151 224 163 273 15 65 9 144 -15 196 -26 53 -89 112 -136 126 l-39 12
-2 331 c-3 306 -4 331 -20 334 -10 2 -19 -2 -19 -10z"/>
</g>
</svg>
