<?xml version="1.0" standalone="no"?>
<!DOCTYPE svg PUBLIC "-//W3C//DTD SVG 20010904//EN"
 "http://www.w3.org/TR/2001/REC-SVG-20010904/DTD/svg10.dtd">
<svg version="1.0" xmlns="http://www.w3.org/2000/svg"
 width="949.000000pt" height="2048.000000pt" viewBox="0 0 949.000000 2048.000000"
 preserveAspectRatio="xMidYMid meet">
<metadata>
Created by potrace 1.15, written by Peter Selinger 2001-2017
</metadata>
<g transform="translate(0.000000,2048.000000) scale(0.100000,-0.100000)"
fill="#000000" stroke="none">
<path d="M8363 20456 c-221 -42 -415 -148 -575 -314 -365 -380 -475 -932 -347
-1752 24 -159 44 -254 84 -410 105 -403 188 -628 501 -1357 307 -716 466
-1149 574 -1563 28 -107 55 -206 60 -220 5 -14 12 -43 15 -65 10 -73 18 -110
25 -125 16 -30 111 -639 135 -865 3 -22 8 -58 11 -80 3 -22 8 -60 10 -85 2
-25 11 -121 20 -215 22 -241 29 -702 15 -915 -42 -619 -176 -1147 -447 -1760
-36 -80 -73 -161 -84 -180 -36 -62 -120 -230 -116 -230 2 0 28 42 58 93 527
890 778 1808 778 2845 0 285 -31 691 -69 907 -5 28 -12 82 -16 120 -7 74 -24
173 -55 320 -10 50 -24 117 -30 150 -38 195 -137 581 -220 851 -173 566 -371
1081 -666 1734 -103 228 -202 456 -221 505 -19 50 -59 154 -89 232 -30 78 -60
166 -68 195 -8 29 -35 126 -59 215 -25 89 -48 181 -51 205 -2 24 -12 99 -21
168 -13 96 -16 169 -12 315 8 276 45 433 157 660 66 135 135 226 237 310 71
58 223 141 308 168 173 55 403 61 547 15 259 -85 447 -302 498 -579 17 -88 14
-289 -4 -375 -72 -336 -298 -533 -612 -534 -150 0 -265 43 -360 135 -194 190
-170 542 46 659 62 34 165 46 224 26 89 -29 144 -117 133 -211 -4 -29 -8 -54
-10 -56 -3 -2 -21 6 -41 18 -52 31 -117 23 -160 -20 -27 -28 -31 -38 -31 -89
0 -74 28 -115 103 -150 130 -59 299 12 369 156 24 50 27 69 27 157 0 85 -3
107 -23 147 -82 167 -316 257 -526 203 -295 -77 -443 -436 -302 -735 43 -93
151 -199 248 -245 135 -63 283 -86 422 -65 420 63 717 407 718 830 1 419 -233
729 -636 842 -92 26 -365 34 -472 14z"/>
<path d="M5975 18566 c-5 -2 -37 -12 -70 -22 -180 -53 -353 -174 -412 -289 -9
-16 -22 -36 -31 -44 -22 -22 -78 -150 -98 -222 -27 -97 -24 -366 4 -471 112
-413 378 -691 1070 -1118 682 -420 860 -548 1102 -790 351 -352 616 -722 825
-1153 164 -340 272 -668 335 -1017 l18 -105 1 70 c0 39 -4 104 -10 145 -5 41
-12 98 -15 125 -7 72 -48 266 -78 373 -156 554 -502 1100 -1031 1627 -240 240
-441 388 -935 690 -551 337 -775 525 -966 810 -177 266 -236 494 -184 719 24
105 78 226 132 294 65 81 218 170 328 190 65 12 233 -1 300 -23 89 -30 194
-116 229 -188 17 -34 21 -62 21 -136 0 -51 -5 -101 -11 -112 -6 -11 -12 -29
-14 -40 -2 -10 -18 -33 -34 -51 -17 -18 -31 -36 -31 -40 0 -5 -24 -20 -52 -34
-79 -39 -177 -40 -256 -3 -33 15 -68 39 -79 53 -12 14 -23 26 -26 26 -15 0 7
-96 31 -135 21 -36 41 -53 92 -78 61 -30 70 -32 175 -32 136 1 199 23 280 96
199 182 195 502 -9 711 -110 114 -249 165 -471 173 -66 3 -124 3 -130 1z"/>
<path d="M4392 17574 c-167 -45 -286 -152 -344 -310 -32 -90 -32 -271 1 -373
71 -216 289 -418 567 -525 142 -54 278 -83 604 -126 824 -109 1180 -192 1540
-361 127 -59 98 -33 -60 54 -368 202 -694 296 -1490 427 -476 78 -580 104
-745 185 -193 94 -301 209 -361 385 -28 81 -26 264 4 340 49 124 118 196 232
242 70 27 196 30 253 4 50 -22 114 -81 138 -127 23 -46 25 -128 4 -168 -43
-85 -164 -123 -249 -79 -17 9 -18 7 -12 -28 15 -82 94 -144 193 -152 45 -4 64
0 118 27 130 64 180 182 140 330 -31 117 -124 213 -244 251 -76 24 -209 26
-289 4z"/>
<path d="M2705 16605 c-108 -24 -226 -86 -299 -158 -233 -233 -189 -595 96
-789 135 -91 264 -127 488 -135 306 -11 532 34 1125 227 294 95 496 150 690
184 192 35 449 66 624 74 l146 8 -100 8 c-137 12 -548 0 -675 -18 -300 -45
-594 -116 -835 -201 -624 -221 -695 -239 -950 -239 -186 0 -247 10 -353 61
-86 41 -190 150 -236 245 -111 231 -49 462 151 564 54 27 66 29 169 29 106 0
113 -1 160 -30 64 -40 94 -92 94 -166 0 -92 -51 -149 -133 -149 -88 0 -132
109 -66 164 17 14 38 26 47 27 12 0 9 3 -7 10 -31 12 -91 -4 -118 -33 -71 -76
-42 -188 61 -238 87 -42 269 -20 361 42 99 68 138 132 139 228 2 128 -75 217
-229 266 -103 33 -249 40 -350 19z"/>
<path d="M5160 15915 c-884 -109 -1621 -604 -1986 -1335 -59 -118 -116 -264
-138 -355 -53 -215 -67 -287 -82 -425 -41 -391 21 -841 181 -1315 93 -277 129
-350 369 -750 170 -284 260 -463 310 -615 47 -145 60 -233 60 -385 0 -165 -17
-228 -78 -293 -39 -41 -48 -46 -97 -49 -45 -4 -60 -1 -89 19 -50 33 -72 82
-66 141 l5 47 -27 -14 c-100 -52 -145 -193 -93 -294 23 -46 81 -99 129 -119
104 -43 262 -19 362 56 233 175 254 600 51 1011 -61 122 -138 245 -315 499
-79 113 -169 248 -200 299 -62 103 -139 252 -134 258 2 2 34 -38 70 -89 86
-120 201 -252 352 -407 423 -433 529 -562 719 -880 272 -455 429 -949 440
-1379 l2 -84 -59 -32 c-105 -59 -186 -79 -316 -80 -104 0 -120 3 -171 26 -185
87 -259 331 -140 462 46 51 102 77 169 77 67 0 109 -18 150 -64 30 -35 37 -50
45 -106 3 -24 5 -23 20 12 21 47 22 120 1 164 -25 53 -86 101 -151 120 -49 14
-69 15 -131 6 -131 -21 -222 -84 -274 -190 -30 -61 -33 -74 -33 -162 0 -91 2
-100 38 -173 58 -118 172 -204 322 -242 123 -31 325 -13 463 42 35 14 65 23
67 21 3 -2 0 -71 -6 -154 -62 -925 -469 -1450 -1101 -1421 -132 6 -204 27
-299 89 -137 88 -226 218 -250 364 -30 183 59 367 216 445 148 73 320 59 388
-32 27 -38 33 -108 12 -148 -20 -39 -82 -70 -141 -71 -44 0 -54 -10 -54 -57 0
-45 31 -92 78 -120 91 -53 227 -27 309 59 104 108 102 310 -4 428 -86 96 -220
138 -403 127 -234 -14 -413 -141 -497 -353 -25 -63 -27 -81 -28 -204 0 -162
19 -229 97 -346 137 -205 399 -314 687 -284 141 14 218 31 328 72 385 145 707
581 817 1106 34 162 46 284 46 472 l0 162 58 66 c77 88 93 112 151 228 46 93
74 169 85 238 30 176 38 249 32 313 -7 85 -51 315 -66 340 -5 10 -28 63 -50
118 -155 381 -540 756 -952 928 -60 25 -44 11 25 -22 364 -174 681 -509 813
-861 83 -220 114 -418 95 -605 -20 -189 -82 -381 -168 -519 l-31 -50 -6 50
c-74 587 -320 1126 -780 1704 -62 78 -178 202 -310 330 -255 246 -457 451
-499 505 -28 35 -23 32 43 -24 283 -237 726 -374 1160 -358 426 16 778 163
1055 441 201 202 323 430 381 711 23 110 26 401 6 510 -116 627 -684 1003
-1278 845 -197 -52 -394 -172 -501 -305 -97 -121 -143 -252 -143 -407 0 -218
95 -390 257 -466 52 -24 69 -27 173 -27 133 0 168 13 237 87 70 77 86 179 43
273 -22 49 -23 50 -30 23 -17 -57 -51 -97 -106 -124 -48 -23 -63 -26 -127 -22
-86 6 -138 30 -190 87 -61 67 -78 114 -84 224 -5 82 -2 108 16 166 39 123 114
231 204 296 34 24 67 49 73 54 30 25 129 66 214 89 137 36 333 36 472 -1 420
-111 700 -440 737 -869 34 -398 -104 -774 -389 -1058 -362 -361 -910 -505
-1467 -385 -292 63 -516 185 -724 394 -253 254 -399 562 -455 957 -20 149 -15
461 11 599 9 50 18 101 20 115 2 14 22 88 45 165 39 133 153 393 179 409 15
10 15 9 -23 -80 -19 -43 -49 -128 -66 -189 -17 -60 -35 -123 -40 -140 -40
-135 -47 -494 -12 -686 92 -505 395 -915 767 -1036 106 -34 305 -43 409 -19
134 32 229 101 255 185 15 51 14 124 -3 164 -14 34 -78 97 -99 97 -7 0 -19
-16 -26 -37 -75 -207 -443 -231 -740 -48 -101 62 -164 118 -238 210 -134 168
-228 435 -239 682 -5 114 10 371 27 463 13 65 74 295 96 360 27 78 132 281
201 385 79 120 302 348 430 439 302 214 680 362 1112 435 702 119 1426 -63
2040 -513 490 -358 930 -938 1168 -1536 172 -432 245 -816 246 -1280 0 -254
-10 -381 -50 -615 -33 -192 -117 -525 -129 -513 -3 2 0 40 5 84 5 43 12 171
16 284 29 921 -272 1810 -853 2511 -108 131 -369 390 -493 491 -518 418 -1111
606 -1555 492 -85 -22 -174 -66 -228 -114 -125 -110 -142 -313 -37 -433 125
-142 367 -140 507 3 18 19 31 35 30 36 -2 2 -20 -2 -40 -8 -80 -25 -205 33
-244 111 -42 85 -4 206 80 255 110 64 312 78 513 37 403 -83 807 -333 1239
-765 191 -191 310 -336 431 -522 368 -571 560 -1299 558 -2119 0 -311 -17
-448 -84 -709 -49 -189 -140 -456 -210 -616 -41 -94 -174 -366 -187 -383 -6
-6 -41 -70 -78 -142 -38 -71 -93 -175 -122 -230 -297 -553 -424 -906 -452
-1256 -43 -530 194 -878 601 -879 99 0 177 25 267 84 91 61 153 131 201 231
73 149 76 277 10 412 -62 126 -179 196 -331 197 -79 1 -91 -2 -155 -34 -110
-57 -162 -145 -151 -256 12 -113 107 -218 184 -202 19 4 19 7 8 88 -11 82 54
142 155 142 137 0 206 -125 169 -304 -37 -178 -171 -294 -353 -305 -298 -19
-460 186 -482 612 -14 264 52 620 177 954 43 115 165 407 180 431 5 8 12 22
15 30 11 24 255 513 442 884 237 469 355 753 447 1073 172 598 175 1223 10
1858 -216 831 -765 1627 -1415 2050 -413 269 -870 430 -1372 484 -131 15 -528
12 -658 -4z"/>
<path d="M3775 15527 c-286 -139 -549 -310 -815 -531 -148 -123 -337 -304
-437 -420 -53 -61 -118 -133 -145 -160 -26 -27 -74 -83 -106 -124 -31 -41 -78
-101 -105 -133 -26 -32 -92 -121 -148 -196 -55 -76 -113 -154 -128 -173 -16
-19 -46 -55 -66 -80 -215 -260 -464 -446 -695 -520 -104 -33 -175 -44 -295
-44 -144 -1 -199 11 -325 71 -79 38 -109 59 -177 128 -66 65 -90 99 -123 166
-71 148 -88 297 -50 444 35 136 103 224 214 276 206 96 408 -4 408 -202 0 -78
-37 -155 -98 -206 -24 -21 -44 -40 -44 -44 0 -18 99 -44 166 -44 175 1 307
134 306 307 -1 196 -171 317 -443 318 -300 0 -555 -182 -634 -455 -24 -83 -16
-264 15 -354 52 -145 182 -289 331 -363 129 -64 234 -89 399 -95 251 -9 456
38 705 162 220 109 389 246 601 485 131 147 274 317 274 324 0 7 244 311 276
344 13 13 38 44 56 69 64 86 193 238 313 367 303 326 559 542 813 686 78 45
102 61 90 60 -2 0 -61 -29 -133 -63z"/>
<path d="M6738 13624 c-237 -43 -411 -188 -464 -389 -8 -27 -14 -88 -14 -135
1 -217 127 -380 337 -435 189 -49 419 35 493 181 25 50 39 156 26 191 -6 14
-13 7 -34 -32 -36 -66 -112 -109 -183 -102 -61 5 -133 48 -167 99 -23 36 -27
52 -27 112 0 60 4 79 28 119 60 101 159 143 321 134 305 -15 563 -223 764
-614 264 -514 329 -1147 191 -1858 -37 -190 -41 -211 -84 -360 -37 -129 -166
-470 -211 -556 -21 -41 -34 -79 -28 -79 16 0 241 519 284 655 7 22 16 45 20
50 24 31 113 353 153 555 52 255 61 355 62 665 0 232 -4 312 -18 402 -62 383
-203 715 -414 975 -260 319 -673 488 -1035 422z"/>
<path d="M6806 12105 c-188 -48 -323 -197 -334 -371 -6 -94 15 -158 75 -224
68 -76 128 -103 240 -108 81 -4 97 -2 145 20 107 50 158 119 158 218 0 105
-77 200 -162 200 -38 0 -39 0 -24 -22 9 -12 16 -37 16 -56 0 -109 -121 -150
-197 -67 -28 30 -33 42 -33 85 0 127 109 210 274 210 324 0 539 -272 608 -770
9 -64 13 -193 12 -390 -2 -295 -2 -295 -43 -546 -22 -139 -46 -265 -52 -280
-6 -16 -26 -92 -45 -169 -36 -150 -37 -153 -115 -378 -28 -82 -49 -150 -47
-152 4 -4 113 254 127 302 5 15 18 49 30 76 11 26 18 47 15 47 -2 0 2 12 10
28 45 88 162 498 202 707 39 208 45 260 51 466 8 288 -11 445 -79 659 -87 274
-220 422 -448 500 -85 29 -295 37 -384 15z"/>
<path d="M6727 10620 c-57 -15 -129 -55 -163 -92 -48 -51 -66 -96 -71 -178 -5
-72 -4 -77 28 -125 54 -80 136 -110 255 -92 40 6 59 15 88 44 43 43 50 66 44
135 -5 43 -11 57 -42 85 -19 18 -46 33 -60 33 -22 0 -23 -3 -19 -42 4 -34 0
-48 -17 -65 -22 -25 -68 -30 -100 -13 -27 14 -41 72 -28 117 22 79 100 119
213 110 310 -24 441 -441 344 -1090 -27 -180 -118 -504 -204 -722 -19 -49 -33
-90 -31 -92 5 -5 110 231 166 372 126 317 175 534 196 855 8 126 -18 298 -66
442 -53 158 -133 245 -275 297 -67 25 -199 36 -258 21z"/>
<path d="M7380 9338 c-925 -1697 -1334 -3210 -1170 -4328 138 -941 711 -1730
1431 -1969 292 -97 655 -107 938 -24 529 153 805 699 583 1153 -52 106 -177
232 -283 283 -139 68 -290 84 -434 47 -188 -48 -317 -184 -347 -365 -37 -221
106 -429 325 -475 189 -39 358 83 361 260 1 54 -20 140 -34 140 -4 0 -10 -17
-13 -38 -14 -85 -121 -173 -211 -172 -172 2 -280 176 -220 354 22 64 100 147
166 177 46 20 69 23 168 23 94 0 127 -4 180 -23 175 -61 298 -197 347 -382 20
-79 22 -243 4 -319 -65 -264 -284 -467 -587 -542 -77 -19 -116 -22 -299 -22
-180 0 -224 3 -311 22 -310 68 -561 204 -801 435 -189 183 -322 369 -457 637
-326 653 -409 1375 -261 2285 126 777 406 1628 886 2689 213 470 214 473 39
154z"/>
<path d="M6793 8313 c-258 -454 -419 -755 -575 -1073 -648 -1323 -1001 -2495
-1078 -3580 -13 -186 -13 -606 0 -780 25 -336 69 -568 166 -880 67 -216 78
-247 121 -340 14 -30 33 -73 43 -95 139 -315 339 -615 570 -858 332 -349 727
-576 1152 -662 393 -79 840 -40 1136 100 332 157 553 428 621 762 66 323 -27
640 -247 844 -149 138 -320 201 -552 203 -119 1 -130 -1 -220 -33 -52 -19
-120 -51 -150 -71 -58 -39 -138 -119 -161 -161 -26 -46 -69 -153 -69 -171 0
-10 -5 -38 -12 -62 -18 -69 3 -201 47 -294 71 -149 220 -259 383 -282 176 -25
320 41 398 182 27 49 29 61 29 153 0 76 -4 110 -18 140 l-19 40 -14 -54 c-18
-69 -45 -111 -96 -155 -155 -133 -391 -52 -457 157 -34 107 -2 247 75 335 97
110 203 147 389 139 315 -14 545 -202 626 -512 28 -107 30 -299 4 -400 -42
-165 -128 -310 -254 -427 -172 -160 -387 -250 -660 -278 -514 -51 -1019 100
-1431 429 -86 69 -266 247 -345 342 -181 216 -372 536 -491 826 -20 48 -39 93
-43 98 -37 51 -167 525 -210 771 -89 496 -93 1144 -11 1749 84 615 258 1285
515 1975 199 535 380 943 750 1696 102 207 183 379 181 381 -2 2 -44 -67 -93
-154z"/>
<path d="M6982 7917 c-188 -618 -262 -1071 -249 -1516 9 -295 48 -509 136
-733 56 -143 104 -220 191 -309 90 -92 200 -151 323 -174 270 -51 514 49 614
251 30 62 36 85 40 161 4 73 2 97 -16 144 -28 75 -77 129 -152 169 -152 81
-338 35 -424 -105 -83 -135 10 -335 156 -335 17 0 29 3 27 8 -35 67 -40 87
-29 123 17 57 55 82 114 76 74 -7 117 -60 117 -145 0 -81 -78 -176 -168 -202
-206 -62 -425 29 -564 234 -99 145 -161 320 -202 570 -35 210 -46 349 -46 581
0 388 52 782 166 1254 19 79 33 146 31 147 -2 2 -31 -87 -65 -199z"/>
</g>
</svg>
